# File created by Blade
# Date/Time:  Wed Jan 21 19:03:07 2015
# Frame Rate: 120.000 fps
#------------------------------------------------------
:FULLY-SPECIFIED
:DEGREES
2282
root -3.952196 29.468020 -7.862377 131.297757 15.402891 3.118887
RightUpLeg -119.658350 -16.196462 25.178113
RightLeg -9.333962 -0.000000 0.000000
RightFoot -10.438896 -3.733000 46.433081
RightToeBase 22.551735 -0.000000 -0.000000
LeftUpLeg -135.840346 9.203112 -19.468414
LeftLeg -9.734812 -0.000000 0.000000
LeftFoot 7.851218 -3.394652 -21.659869
LeftToeBase 9.002296 -0.000000 -0.000000
Spine 22.969977 6.558811 -21.507764
RightShoulder -14.362230 47.986288 -65.424557
RightArm 36.741973 -4.070781 92.734037
RightForeArm 56.645948 -0.000000 92.903781
RightHand 12.752974 0.000000 -31.653251
RightHandThumb1 -24.326973 -0.000000 -32.862282
LeftShoulder 2.826441 9.849808 15.610581
LeftArm 99.876506 -19.018855 -91.534910
LeftForeArm -23.335689 -0.000000 96.782135
LeftHand -26.574719 -0.000000 -8.537823
LeftHandThumb1 -26.253704 0.000000 33.147579
Head -91.337905 -40.157473 42.402692
2283
root -3.942805 29.465852 -7.853267 131.333571 15.408648 3.142372
RightUpLeg -119.677705 -16.215916 25.212636
RightLeg -9.336951 -0.000000 0.000000
RightFoot -10.434729 -3.753234 46.500393
RightToeBase 22.582764 -0.000000 -0.000000
LeftUpLeg -135.828389 9.181583 -19.455967
LeftLeg -9.770277 -0.000000 0.000000
LeftFoot 7.850064 -3.417817 -21.773830
LeftToeBase 9.046994 -0.000000 -0.000000
Spine 23.003407 6.404826 -21.541142
RightShoulder -14.383821 47.803500 -65.411610
RightArm 37.038531 -4.171469 92.672499
RightForeArm 56.585769 -0.000000 92.950375
RightHand 12.766373 -0.000000 -31.817359
RightHandThumb1 -24.326973 -0.000000 -32.862282
LeftShoulder 2.676935 9.620538 15.593105
LeftArm 99.594738 -19.100287 -91.436806
LeftForeArm -23.417499 -0.000000 96.881379
LeftHand -26.614141 -0.000000 -8.452063
LeftHandThumb1 -26.253704 0.000000 33.147579
Head -91.427465 -40.231115 42.712725
2284
root -3.930664 29.463101 -7.845821 131.366932 15.408121 3.165603
RightUpLeg -119.701324 -16.244780 25.242073
RightLeg -9.340073 -0.000000 0.000000
RightFoot -10.461289 -3.724588 46.752999
RightToeBase 22.628062 -0.000000 -0.000000
LeftUpLeg -135.810914 9.143870 -19.450667
LeftLeg -9.813081 -0.000000 0.000000
LeftFoot 7.841426 -3.428584 -21.862936
LeftToeBase 9.083071 -0.000000 -0.000000
Spine 23.052083 6.271540 -21.556917
RightShoulder -14.435298 47.594809 -65.426420
RightArm 37.334808 -4.283322 92.586429
RightForeArm 56.619987 -0.000000 92.964763
RightHand 12.979515 -0.000000 -31.693049
RightHandThumb1 -24.326973 -0.000000 -32.862282
LeftShoulder 2.539846 9.340130 15.563795
LeftArm 99.274276 -19.189441 -91.326516
LeftForeArm -23.496741 -0.000000 96.982934
LeftHand -26.669594 0.000000 -8.445233
LeftHandThumb1 -26.253704 0.000000 33.147579
Head -91.474940 -40.303006 42.948809
2285
root -3.917313 29.460713 -7.837631 131.406139 15.411254 3.184684
RightUpLeg -119.741562 -16.259152 25.281269
RightLeg -9.309277 -0.000000 0.000000
RightFoot -10.483652 -3.739108 46.783552
RightToeBase 22.705384 -0.000000 -0.000000
LeftUpLeg -135.793914 9.081473 -19.468435
LeftLeg -9.880744 -0.000000 0.000000
LeftFoot 7.874108 -3.472464 -21.961260
LeftToeBase 9.033511 -0.000000 -0.000000
Spine 23.096582 6.151252 -21.563627
RightShoulder -14.473906 47.402321 -65.430505
RightArm 37.645920 -4.394731 92.444407
RightForeArm 56.654062 0.000000 92.966767
RightHand 13.375671 -0.000000 -31.827593
RightHandThumb1 -24.326973 -0.000000 -32.862282
LeftShoulder 2.422520 9.087642 15.563699
LeftArm 98.970438 -19.298994 -91.265821
LeftForeArm -23.496508 -0.000000 97.078165
LeftHand -26.640489 -0.000000 -8.582521
LeftHandThumb1 -26.253704 0.000000 33.147579
Head -91.498794 -40.403648 43.164246
